<svg width="720" height="520" viewBox="0 0 720 520" fill="none" xmlns="http://www.w3.org/2000/svg">
  <defs>
    <linearGradient id="bg1" x1="50" y1="40" x2="670" y2="480" gradientUnits="userSpaceOnUse">
      <stop stop-color="#0EA5E9"/>
      <stop offset="1" stop-color="#0F766E"/>
    </linearGradient>
    <linearGradient id="card" x1="95" y1="105" x2="420" y2="320" gradientUnits="userSpaceOnUse">
      <stop stop-color="#ffffff" stop-opacity="0.98"/>
      <stop offset="1" stop-color="#E6F7FF" stop-opacity="0.92"/>
    </linearGradient>
  </defs>

  <rect x="0" y="0" width="720" height="520" rx="36" fill="url(#bg1)"/>
  <circle cx="90" cy="70" r="32" fill="#ffffff" fill-opacity="0.18"/>
  <circle cx="640" cy="70" r="48" fill="#ffffff" fill-opacity="0.1"/>
  <circle cx="640" cy="430" r="56" fill="#ffffff" fill-opacity="0.12"/>

  <rect x="90" y="100" width="350" height="230" rx="20" fill="url(#card)"/>
  <rect x="120" y="145" width="230" height="18" rx="9" fill="#0EA5E9"/>
  <rect x="120" y="180" width="290" height="13" rx="7" fill="#94A3B8"/>
  <rect x="120" y="205" width="260" height="13" rx="7" fill="#94A3B8"/>
  <rect x="120" y="230" width="200" height="13" rx="7" fill="#94A3B8"/>

  <rect x="470" y="150" width="160" height="120" rx="16" fill="#F0FDFF"/>
  <path d="M500 210L530 185L565 210L600 180" stroke="#0EA5E9" stroke-width="8" stroke-linecap="round" stroke-linejoin="round"/>
  <circle cx="530" cy="185" r="8" fill="#0F766E"/>
  <circle cx="565" cy="210" r="8" fill="#0F766E"/>
  <circle cx="600" cy="180" r="8" fill="#0F766E"/>

  <rect x="190" y="365" width="340" height="88" rx="16" fill="#ffffff" fill-opacity="0.92"/>
  <rect x="220" y="390" width="170" height="16" rx="8" fill="#0F766E"/>
  <rect x="220" y="416" width="260" height="12" rx="6" fill="#A5B4FC"/>
</svg>
